<?xml version="1.0" encoding="UTF-8" standalone="no"?>
<!-- Generator: Adobe Illustrator 23.0.1, SVG Export Plug-In . SVG Version: 6.00 Build 0)  -->

<svg
   xmlns:dc="http://purl.org/dc/elements/1.1/"
   xmlns:cc="http://creativecommons.org/ns#"
   xmlns:rdf="http://www.w3.org/1999/02/22-rdf-syntax-ns#"
   xmlns:svg="http://www.w3.org/2000/svg"
   xmlns="http://www.w3.org/2000/svg"
   xmlns:sodipodi="http://sodipodi.sourceforge.net/DTD/sodipodi-0.dtd"
   xmlns:inkscape="http://www.inkscape.org/namespaces/inkscape"
   version="1.1"
   id="Layer_1"
   x="0px"
   y="0px"
   viewBox="0 0 648 648"
   enable-background="new 0 0 648 648"
   xml:space="preserve"
   sodipodi:docname="TNC_logo_core_2.svg"
   inkscape:version="0.92.4 (5da689c313, 2019-01-14)"
   inkscape:label="Swishes"><metadata
   id="metadata17"><rdf:RDF><cc:Work
       rdf:about=""><dc:format>image/svg+xml</dc:format><dc:type
         rdf:resource="http://purl.org/dc/dcmitype/StillImage" /></cc:Work></rdf:RDF></metadata><defs
   id="defs15" /><sodipodi:namedview
   pagecolor="#ffffff"
   bordercolor="#666666"
   borderopacity="1"
   objecttolerance="10"
   gridtolerance="10"
   guidetolerance="10"
   inkscape:pageopacity="0"
   inkscape:pageshadow="2"
   inkscape:window-width="2560"
   inkscape:window-height="1387"
   id="namedview13"
   showgrid="false"
   inkscape:zoom="2"
   inkscape:cx="239.64113"
   inkscape:cy="332.09424"
   inkscape:window-x="-8"
   inkscape:window-y="-8"
   inkscape:window-maximized="1"
   inkscape:current-layer="layer2" />
<g
   id="g10">
	<path
   d="M234.268,405.596c12.34-2.48,24.68-4.982,36.822-8.397c35.757-10.059,69.828-24.242,102.412-42.016   c17.687-9.648,34.792-20.231,50.105-33.422c7.668-6.605,15.166-13.471,19.749-22.782c4.592-9.329,1.736-16.12-8.121-19.216   c-7.509-2.359-15.248-2.538-23.011-1.915c-30.572,2.453-59.516,11.411-87.959,22.257c-31.014,11.827-60.753,26.237-88.543,44.487   c-5.802,3.811-11.4,7.933-17.24,11.73c1.771-2.543,4.319-4.22,6.736-6.024c34.527-25.765,72.783-44.581,112.76-60.072   c27.194-10.538,54.992-19.111,84.028-22.963c11.416-1.514,22.885-2.239,34.275,0.358c1.814,0.414,3.624,1.014,5.305,1.806   c7.621,3.592,10.14,9.67,7.287,17.592c-2.602,7.228-7.451,13.007-12.7,18.359c-13.653,13.921-29.517,25.035-46.134,35.048   c-43.066,25.949-88.852,45.569-137.522,58.327c-11.846,3.105-23.851,5.467-36.035,6.832   C235.754,405.668,235.007,405.596,234.268,405.596z"
   id="path2" />
	<path
   d="M413.448,313.117c-6.866,6.535-14.721,11.816-22.746,16.828c-34.285,21.416-70.809,38.126-109.004,51.185   c-21.307,7.285-42.997,13.258-65.419,16.062c-11.053,1.382-22.167,2.215-33.165-0.414c-13.905-3.325-17.516-11.301-10.69-23.87   c5.343-9.839,13.497-17.284,22.007-24.286c27.837-22.903,59.327-39.691,91.998-54.409c26.94-12.136,54.654-22.146,83.405-29.134   c9.568-2.326,19.204-4.302,29.11-4.873c-3.803,0.729-7.618,1.398-11.407,2.195c-31.471,6.622-61.412,17.745-90.628,30.956   c-21.213,9.592-41.715,20.534-60.948,33.684c-13.201,9.026-26.209,18.38-36.021,31.343c-2.419,3.196-4.637,6.496-5.784,10.426   c-2.045,7.01,0.088,11.953,6.731,15.06c5.211,2.437,10.855,2.876,16.468,3.065c12.441,0.418,24.661-1.496,36.78-4.056   c30.341-6.41,59.299-16.941,87.58-29.491c21.739-9.647,42.608-20.886,62.512-33.904   C407.354,317.44,410.378,315.243,413.448,313.117z"
   id="path4" />
	<path
   d="M369.644,292.876c-13.241,3.508-26.193,7.688-38.886,12.609c-26.86,10.413-52.905,22.427-76.008,39.989   c-3.985,3.03-7.75,6.344-10.381,10.698c-2.319,3.839-1.266,6.299,3.105,7.515c5.489,1.527,10.987,0.56,16.353-0.406   c21.007-3.784,41.001-10.873,60.595-19.176c10.919-4.627,21.743-9.451,32.093-15.275c0.281-0.158,0.69-0.091,1.426,0.53   c-3.216,1.807-6.372,3.733-9.659,5.401c-26.679,13.532-54.07,25.287-83.128,32.772c-8.835,2.276-17.75,4.233-26.976,3.906   c-1.247-0.044-2.511-0.031-3.737-0.229c-6.687-1.08-8.311-4.906-4.449-10.621c3.995-5.912,9.641-10.108,15.348-14.155   c11.128-7.892,22.945-14.613,35.155-20.718c20.918-10.458,42.257-19.861,64.586-26.9   C353.145,296.274,361.245,293.84,369.644,292.876z"
   id="path6" />
	<path
   d="M276.032,370.285c14.014-4.37,27.795-9.17,41.298-14.749c21.972-9.077,43.326-19.353,62.748-33.237   c4.972-3.554,9.904-7.235,13.576-12.237c4.056-5.524,2.459-9.134-4.425-9.875c-6.29-0.677-12.482,0.469-18.588,1.737   c-22.498,4.67-43.824,12.867-64.77,22.087c-12.674,5.579-24.973,11.94-36.985,18.893c3.129-3.13,7.071-5.073,10.864-7.135   c30.815-16.75,62.727-30.845,96.881-39.372c8.127-2.029,16.35-3.627,24.812-3.22c1.122,0.054,2.26,0.047,3.359,0.243   c6.237,1.111,7.853,4.961,4.253,10.239c-4.904,7.189-11.991,11.987-18.997,16.765c-12.505,8.528-25.777,15.717-39.432,22.268   c-20.196,9.69-40.853,18.146-62.318,24.58c-3.708,1.111-7.464,2.061-11.205,3.058C276.773,370.419,276.39,370.305,276.032,370.285z   "
   id="path8" />
</g>
<path
   style="fill:#3bb44a;fill-opacity:1;stroke-width:0.5"
   d="m 242.55,404.23536 c 0.275,-0.10214 5.15537,-1.21288 10.84527,-2.46833 42.27412,-9.32755 92.19595,-29.50178 133.65473,-54.01207 28.25663,-16.70523 49.47813,-34.84089 55.99407,-47.85192 5.4845,-10.95143 2.39765,-17.4589 -9.96044,-20.99792 -3.65229,-1.04592 -5.0263,-1.15328 -14.53363,-1.13569 -24.07842,0.0446 -53.17575,6.72155 -91,20.88185 -35.51874,13.29719 -66.62355,28.8857 -93.6786,46.94803 -4.49823,3.00309 -8.27972,5.35904 -8.40331,5.23545 -0.62265,-0.62265 23.17234,-16.63366 34.83191,-23.43746 30.39929,-17.73913 68.64785,-34.76388 104,-46.29124 32.51229,-10.60137 65.09343,-16.35831 82.70581,-14.61375 11.31214,1.1205 17.45999,3.56457 20.64061,8.20567 2.87748,4.19876 2.71701,8.82541 -0.54141,15.60935 -6.30766,13.13239 -28.53161,32.52169 -57.05501,49.77769 -44.68181,27.03145 -93.99028,47.65163 -142.5,59.59169 -10.35504,2.54876 -28.49412,5.85635 -25,4.55865 z"
   id="path3742"
   inkscape:connector-curvature="0" /><path
   style="fill:#f6ea00;fill-opacity:0.94974875;stroke-width:0.5"
   d="m 193.8,397.92856 c -9.56983,-0.51269 -16.52932,-2.53788 -20.38534,-5.93209 -2.90513,-2.5572 -3.86466,-4.65161 -3.86466,-8.43562 0,-12.8829 16.95701,-31.0116 49,-52.38579 37.923,-25.29644 93.26575,-50.15945 140,-62.8957 11.61892,-3.16645 26.1335,-6.40358 27.70116,-6.17808 0.57686,0.083 -1.42616,0.68317 -4.45116,1.33376 -27.37424,5.88748 -66.44887,20.30895 -100.5,37.09202 -29.67165,14.62453 -57.6995,33.06447 -72.53661,47.72294 -13.27551,13.11567 -18.07011,23.18372 -14.42981,30.30078 0.9747,1.9056 4.05255,4.43316 6.93962,5.69888 5.11952,2.24445 7.30271,2.50274 20.7768,2.45807 11.95903,-0.0397 13.30219,-0.13952 21.65101,-1.60991 35.43374,-6.24055 75.34619,-19.97546 115.09899,-39.60854 14.57243,-7.19702 28.88522,-15.14633 39.58981,-21.98814 3.44306,-2.20063 6.36341,-4.00114 6.48966,-4.00114 0.76062,0 -1.10034,1.44029 -6.96324,5.38922 -21.13138,14.23293 -51.08483,30.08317 -78.86623,41.73303 -50.88389,21.33767 -96.85286,32.82764 -125.25,31.30631 z"
   id="path5092"
   inkscape:connector-curvature="0" /><path
   style="fill:#e9005f;fill-opacity:0.86666667;stroke-width:0.5"
   d="m 232.21646,370.45135 c -2.31477,-0.67015 -4.33089,-3.25421 -3.96527,-5.08227 1.40735,-7.03678 11.45217,-15.87455 32.4192,-28.5235 12.36113,-7.4572 39.10352,-20.54373 56.37961,-27.58965 10.99385,-4.48377 27.46238,-10.20249 37.34792,-12.96912 8.36154,-2.34013 6.0659,-1.29522 -5.89277,2.68221 -26.29214,8.7447 -54.06694,21.02493 -72.70515,32.14552 -24.03105,14.33826 -35.53173,25.31554 -32.0653,30.60598 1.8655,2.84711 10.26133,3.56587 20.33302,1.74068 22.89745,-4.14946 52.98927,-14.77459 81.37931,-28.73424 6.40586,-3.14983 11.80586,-5.71994 12,-5.71135 1.51209,0.0668 -23.51802,12.75407 -35.8799,18.18674 -26.11381,11.47623 -52.68987,20.21523 -70.01713,23.02373 -5.16345,0.83691 -16.7544,0.97197 -19.33354,0.22527 z"
   id="path5094"
   inkscape:connector-curvature="0" /><path
   style="fill:#e9005f;fill-opacity:0.86666667;stroke-width:0.5"
   d="m 296.3,363.79997 c 30.55376,-10.79095 59.16659,-24.56316 79.14366,-38.09418 9.42676,-6.385 13.95028,-10.06457 17.1567,-13.95579 3.99849,-4.85246 4.40261,-8.12931 1.28861,-10.44893 -1.22459,-0.91219 -2.24858,-1.07343 -7.75,-1.22029 -5.66855,-0.15133 -7.26439,0.0174 -15.08897,1.59524 -21.37654,4.31064 -53.68736,15.89382 -77.17713,27.66741 -2.43493,1.22043 -4.54028,2.10583 -4.67857,1.96754 -0.32639,-0.32639 13.51607,-7.25263 24.22469,-12.12112 26.04799,-11.84227 56.36914,-21.96597 74.63101,-24.91799 5.49313,-0.88797 15.36617,-1.01169 18.18886,-0.22794 2.79742,0.77674 4.31114,2.47883 4.31114,4.84763 0,11.30709 -42.48937,37.93882 -91.5,57.35091 -10.15283,4.02132 -28.13282,10.27244 -29.43002,10.23195 -0.45099,-0.0141 2.55502,-1.21757 6.68002,-2.67444 z"
   id="path5096"
   inkscape:connector-curvature="0" /><path
   style="fill:#e9005f;fill-opacity:0.86666667;stroke-width:0.5"
   d="m 313.09167,357.81489 c 0.11458,-0.10181 3.35833,-1.48941 7.20833,-3.08357 28.80159,-11.92576 58.67461,-29.12829 69.80475,-40.19742 6.01619,-5.98321 7.27414,-9.52957 4.4875,-12.65101 l -1.45774,-1.63289 -6.5905,-0.16569 c -7.47575,-0.18795 -12.26693,0.47378 -23.24401,3.21035 -13.20773,3.29266 -29.81146,8.81794 -44.5,14.80844 -14.57256,5.94319 -12.79485,4.4402 2.5,-2.11366 21.37282,-9.15828 45.20097,-17.12236 61.26605,-20.47696 6.53411,-1.3644 16.0256,-2.07139 20.72845,-1.54399 5.40483,0.60613 6.89186,1.69824 6.89186,5.06157 0,9.5047 -32.46572,31.35656 -73.88636,49.73105 -12.18931,5.40727 -24.5167,10.2163 -23.20833,9.05378 z"
   id="path5098"
   inkscape:connector-curvature="0" /><path
   style="fill:#2482c8;fill-opacity:1;stroke-width:0.5"
   d="m 315.55,356.89537 c 0.1375,-0.13492 3.85,-1.77042 8.25,-3.63445 16.73757,-7.09077 36.85564,-17.64598 49.61655,-26.03197 11.5911,-7.61724 17.38733,-12.48678 20.61326,-17.31765 2.50913,-3.75745 2.64492,-5.69573 0.56244,-8.02841 l -1.45774,-1.63289 -6.5905,-0.16569 c -7.45563,-0.18745 -12.33454,0.48322 -22.99401,3.16082 -13.9173,3.49595 -27.91109,8.12429 -44.15722,14.60467 -5.17397,2.06383 -9.51279,3.64685 -9.64182,3.51782 -0.30558,-0.30557 13.72424,-6.39659 24.54904,-10.65791 11.30673,-4.45104 31.75723,-11.17175 40.75,-13.39179 C 385.9419,294.62904 390.36528,294 398.38155,294 c 9.61304,0 11.66845,0.87847 11.66845,4.98705 0,9.12754 -29.85547,29.73059 -69,47.61642 -12.51895,5.72014 -26.65548,11.42569 -25.5,10.2919 z"
   id="path5100"
   inkscape:connector-curvature="0" /><path
   style="fill:#2482c8;fill-opacity:1;stroke-width:0.125"
   d="m 290.18667,366.21067 c 0,-0.10174 2.1767,-0.92907 7.625,-2.89812 6.25082,-2.25909 9.56986,-3.51402 15.10208,-5.71013 2.42801,-0.96384 4.43893,-1.72808 4.4687,-1.69831 0.0298,0.0298 -0.90274,0.46367 -2.07224,0.96423 -2.01092,0.86069 -2.7175,1.25022 -1.91526,1.05586 0.74447,-0.18035 4.81748,-1.6084 6.78115,-2.37754 1.12856,-0.44204 2.10448,-0.78619 2.16872,-0.76478 0.0642,0.0214 -1.056,0.5076 -2.48943,1.08041 -10.21549,4.08221 -29.66872,10.86745 -29.66872,10.34838 z"
   id="path5106"
   inkscape:connector-curvature="0" /><path
   style="fill:#2482c8;fill-opacity:1;stroke-width:0.125"
   d="m 313.95332,357.56669 c 0.0321,-0.0321 0.37895,-0.20012 0.77083,-0.37343 0.54169,-0.23956 0.71252,-0.27335 0.71252,-0.14093 0,0.0958 -0.26314,0.26383 -0.58477,0.37342 -0.56113,0.1912 -1.02096,0.26332 -0.89858,0.14094 z"
   id="path5108"
   inkscape:connector-curvature="0" /><path
   style="fill:#2482c8;fill-opacity:1;stroke-width:0.125"
   d=""
   id="path5110"
   inkscape:connector-curvature="0" /><path
   style="fill:#2482c8;fill-opacity:1;stroke-width:0.125"
   d=""
   id="path5112"
   inkscape:connector-curvature="0" /><path
   style="fill:#2482c8;fill-opacity:1;stroke-width:0.125"
   d=""
   id="path5114"
   inkscape:connector-curvature="0" /><path
   style="fill:#2482c8;fill-opacity:1;stroke-width:0.125"
   d=""
   id="path5116"
   inkscape:connector-curvature="0" /><path
   style="fill:#2482c8;fill-opacity:1;stroke-width:0.125"
   d="m 410.47072,298.875 c 0,-0.30938 0.0244,-0.43594 0.0542,-0.28125 0.0298,0.15469 0.0298,0.40781 0,0.5625 -0.0298,0.15469 -0.0542,0.0281 -0.0542,-0.28125 z"
   id="path5118"
   inkscape:connector-curvature="0" /><path
   style="fill:#2482c8;fill-opacity:1;stroke-width:0.125"
   d="m 370.68667,331.71406 c 0,-0.0345 0.57656,-0.38771 1.28125,-0.78496 0.70469,-0.39725 2.65938,-1.53697 4.34375,-2.53272 20.58559,-12.16951 33.0651,-22.83653 33.80882,-28.89851 0.10425,-0.8497 -0.10989,-2.23792 -0.44719,-2.89908 -0.31856,-0.62443 -0.23002,-0.75737 0.12347,-0.1854 0.65959,1.06724 0.83927,2.73532 0.44111,4.09517 -1.92281,6.56707 -15.67621,17.69567 -36.80121,29.7778 -2.29279,1.31133 -2.75,1.54869 -2.75,1.4277 z"
   id="path5120"
   inkscape:connector-curvature="0" /><path
   style="fill:#2482c8;fill-opacity:1;stroke-width:0.125"
   d="m 393.22754,300.85876 c -0.21815,-0.13505 -0.75252,-0.32279 -1.1875,-0.41721 l -0.79087,-0.17168 0.88173,-0.01 c 0.84905,-0.01 0.89745,0.006 1.30577,0.42756 0.46924,0.48413 0.39478,0.5451 -0.20913,0.17126 z"
   id="path5122"
   inkscape:connector-curvature="0" /><path
   style="fill:#2482c8;fill-opacity:1;stroke-width:0.125"
   d="m 396.34669,294.03297 c 0.32864,-0.0258 0.83489,-0.0255 1.125,6.9e-4 0.29012,0.0262 0.0212,0.0473 -0.59752,0.047 -0.61875,-3.8e-4 -0.85611,-0.0218 -0.52748,-0.0477 z"
   id="path5124"
   inkscape:connector-curvature="0" /><path
   style="fill:#2482c8;fill-opacity:1;stroke-width:0.125"
   d="m 398.81167,294.00241 -4.4375,-0.0649 2.625,-0.11022 c 2.50737,-0.10529 5.41028,-0.0322 6.75,0.17 l 0.625,0.0943 -0.5625,-0.0121 c -0.30937,-0.007 -2.55937,-0.0413 -5,-0.077 z"
   id="path5126"
   inkscape:connector-curvature="0" /><path
   style="fill:#2482c8;fill-opacity:1;stroke-width:0.125"
   d="m 289.63042,331.00861 c 0.74357,-0.72878 15.05527,-7.78156 24.49375,-12.07049 24.24913,-11.019 53.77058,-20.98351 71.82737,-24.24422 4.44655,-0.80296 7.70535,-1.0689 13.09837,-1.0689 5.00793,0 7.17181,0.25264 8.65803,1.01085 0.70293,0.35861 0.53383,0.4127 -0.34451,0.11019 -0.40659,-0.14003 -1.21738,-0.33588 -1.80176,-0.43522 -0.58437,-0.0993 -1.2875,-0.24176 -1.5625,-0.3165 -0.7603,-0.20665 -6.73764,-0.29934 -8.5,-0.1318 -0.825,0.0784 -2.2875,0.19873 -3.25,0.26736 -9.80025,0.69873 -25.45043,4.85939 -47.125,12.52835 -8.94702,3.16566 -17.493,6.569 -28.64761,11.4086 -2.96096,1.28465 -7.65833,3.57793 -7.4648,3.64434 0.0757,0.026 0.94755,-0.24049 1.9375,-0.59213 3.25004,-1.15445 2.96409,-0.98815 -2.01259,1.17052 -4.17026,1.80887 -8.92902,4.00489 -14.0625,6.48939 -2.2,1.06476 -4.2402,2.0282 -4.53378,2.14099 -0.60184,0.23121 -0.89243,0.2675 -0.70997,0.0887 z"
   id="path5128"
   inkscape:connector-curvature="0" /><path
   style="fill:#2482c8;fill-opacity:1;stroke-width:0.125"
   d=""
   id="path5130"
   inkscape:connector-curvature="0" /><path
   style="fill:#2482c8;fill-opacity:1;stroke-width:0.125"
   d=""
   id="path5132"
   inkscape:connector-curvature="0" /><path
   style="fill:#2482c8;fill-opacity:1;stroke-width:0.0625"
   d="m 322.29955,354.79195 c -0.053,-0.0607 0.0871,-0.13957 0.625,-0.3515 3.57626,-1.40911 11.30279,-4.72269 16.66212,-7.14567 10.19826,-4.6107 20.6044,-9.82545 29.53973,-14.80304 1.17779,-0.65611 1.47197,-0.79588 1.58617,-0.75364 0.12247,0.0453 0.0503,0.10176 -0.57098,0.44652 -13.27316,7.36587 -27.50227,14.23321 -42.74242,20.62858 -1.57988,0.66298 -4.98425,2.06235 -5.01017,2.05942 -0.0116,-10e-4 -0.0519,-0.0376 -0.0894,-0.0807 z"
   id="path5134"
   inkscape:connector-curvature="0" /><path
   style="fill:#2482c8;fill-opacity:1;stroke-width:0.0625"
   d=""
   id="path5136"
   inkscape:connector-curvature="0" /><path
   style="fill:#2482c8;fill-opacity:1;stroke-width:0.04419417"
   d="m 363.427,333.30198 c 0.0126,-0.0126 0.79654,-0.48638 1.74199,-1.05275 5.01141,-3.00208 9.11537,-5.66791 14.09336,-9.15473 3.67087,-2.57124 6.65846,-4.8477 8.63146,-6.57692 0.27485,-0.24089 0.50898,-0.42873 0.52029,-0.41742 0.0468,0.0468 -1.5505,1.42135 -2.96161,2.54872 -5.26518,4.20651 -13.72513,9.87211 -21.50752,14.40351 -0.40716,0.23708 -0.59687,0.32849 -0.51797,0.24959 z"
   id="path5138"
   inkscape:connector-curvature="0" /><path
   style="fill:#2482c8;fill-opacity:1;stroke-width:0.04419417"
   d=""
   id="path5140"
   inkscape:connector-curvature="0" /><path
   style="fill:#2482c8;fill-opacity:1;stroke-width:0.04419417"
   d="m 361.51839,334.40886 c 0,-0.035 0.27176,-0.16395 0.29548,-0.14023 0.0122,0.0122 -0.0384,0.0534 -0.1124,0.0917 -0.14022,0.0725 -0.18308,0.0839 -0.18308,0.0486 z"
   id="path5142"
   inkscape:connector-curvature="0" /><path
   style="fill:#2482c8;fill-opacity:1;stroke-width:0.04419417"
   d=""
   id="path5144"
   inkscape:connector-curvature="0" /><path
   style="fill:#2482c8;fill-opacity:1;stroke-width:0.03125"
   d="m 370.52105,331.71071 c 0.12346,-0.0883 0.48793,-0.28007 0.50326,-0.26474 0.009,0.009 -0.0378,0.0477 -0.10318,0.0868 -0.0654,0.0391 -0.14696,0.0955 -0.18133,0.12519 -0.0344,0.0297 -0.11172,0.0638 -0.17188,0.0758 -0.10078,0.02 -0.10446,0.0182 -0.0469,-0.023 z"
   id="path5146"
   inkscape:connector-curvature="0" /><path
   style="fill:#2482c8;fill-opacity:1;stroke-width:0.03125"
   d=""
   id="path5148"
   inkscape:connector-curvature="0" /><path
   style="fill:#2482c8;fill-opacity:1;stroke-width:0.03125"
   d="m 361.80815,334.26106 c -0.029,-0.029 1.5689,-0.95434 1.60712,-0.93071 0.0177,0.0109 -0.23951,0.17758 -0.57163,0.37029 -0.87559,0.50805 -1.01332,0.58259 -1.03549,0.56042 z"
   id="path5150"
   inkscape:connector-curvature="0" /><path
   style="fill:#2482c8;fill-opacity:1;stroke-width:0.04419417"
   d="m 312.8827,320.56818 c 0.0729,-0.0382 0.16242,-0.10549 0.19888,-0.14945 0.0365,-0.0439 0.33477,-0.18298 0.66291,-0.30896 0.32814,-0.12597 1.76003,-0.69247 3.18198,-1.25888 12.01856,-4.78737 19.94327,-7.67614 28.7925,-10.49564 9.93899,-3.1667 20.79235,-6.02695 27.58676,-7.2701 1.17142,-0.21433 3.07893,-0.51053 3.24468,-0.50385 0.10993,0.004 -0.0854,0.044 -1.30973,0.26501 -1.25956,0.22742 -4.91519,0.95718 -6.31976,1.2616 -15.10468,3.2737 -35.16579,9.84774 -54.34008,17.80729 -1.6048,0.66618 -2.0491,0.83702 -1.69814,0.65298 z"
   id="path5152"
   inkscape:connector-curvature="0" /><path
   style="fill:#2482c8;fill-opacity:1;stroke-width:0.04419417"
   d=""
   id="path5154"
   inkscape:connector-curvature="0" /><path
   style="fill:#2482c8;fill-opacity:1;stroke-width:0.04419417"
   d="m 354.04129,303.28694 c 0.0319,-0.0128 0.07,-0.0112 0.0847,0.003 0.0147,0.0147 -0.0114,0.0251 -0.058,0.0232 -0.0515,-0.002 -0.062,-0.0126 -0.0267,-0.0267 z"
   id="path5156"
   inkscape:connector-curvature="0" /><path
   style="fill:#2482c8;fill-opacity:1;stroke-width:0.0625"
   d="m 317.31233,355.88088 c -0.0668,-0.0423 -0.0526,-0.0654 0.0625,-0.10176 0.18247,-0.0576 2.9545,-1.21089 5.1865,-2.15771 5.07572,-2.15315 11.9398,-5.24861 16.33368,-7.36593 0.65109,-0.31374 1.20956,-0.56186 1.24104,-0.55137 0.0967,0.0322 -5.18723,2.55582 -8.89359,4.24748 -2.60766,1.19019 -3.97749,1.79008 -8.90625,3.90029 -2.44063,1.04494 -4.52986,1.94168 -4.64275,1.99276 -0.23737,0.1074 -0.26468,0.10999 -0.38113,0.0362 z"
   id="path5158"
   inkscape:connector-curvature="0" /><path
   style="fill:#2482c8;fill-opacity:1;stroke-width:0.0625"
   d="m 289.67961,366.42075 c 0,-0.0969 0.38531,-0.21799 0.57371,-0.18023 0.19994,0.0401 0.20182,0.0431 0.0513,0.0833 -0.29124,0.0778 -0.625,0.12952 -0.625,0.0969 z"
   id="path5160"
   inkscape:connector-curvature="0" /><path
   style="fill:#2482c8;fill-opacity:1;stroke-width:0.0625"
   d="m 313.49211,357.73635 c 0.22344,-0.11777 0.41563,-0.18875 0.42709,-0.15771 0.0115,0.031 0.0818,0.059 0.15625,0.0621 0.13916,0.006 -0.46692,0.21394 -0.80209,0.27536 -0.13112,0.024 -0.0653,-0.03 0.21875,-0.17977 z"
   id="path5164"
   inkscape:connector-curvature="0" /><path
   style="fill:#2482c8;fill-opacity:1;stroke-width:0.0625"
   d="m 315.35461,357.18506 c 0.10965,-0.10964 0.0916,-0.23683 -0.0344,-0.24189 -0.0935,-0.004 -0.0913,-0.0122 0.0156,-0.0581 0.18872,-0.0811 0.20992,-0.0735 0.17436,0.0625 -0.0269,0.10287 -9.7e-4,0.12584 0.14648,0.12976 l 0.17916,0.005 -0.21875,0.0842 c -0.27927,0.10755 -0.35683,0.11309 -0.2625,0.0188 z"
   id="path5166"
   inkscape:connector-curvature="0" /><path
   style="fill:#2482c8;fill-opacity:1;stroke-width:0.0625"
   d="m 314.33586,357.40302 c 0.17188,-0.0901 0.48756,-0.2254 0.70153,-0.30078 0.21396,-0.0754 0.36865,-0.15893 0.34375,-0.18567 -0.0249,-0.0267 -0.003,-0.0347 0.0485,-0.0176 0.0516,0.017 0.24844,-0.0462 0.4375,-0.14049 0.60623,-0.30245 3.53957,-1.58797 7.11516,-3.1182 7.51774,-3.21732 12.3984,-5.47201 19.57234,-9.04171 4.76127,-2.36917 7.76185,-3.92367 11.96875,-6.20062 1.58024,-0.85528 5.76646,-3.1731 6.14063,-3.39993 l 0.20312,-0.12313 v 1.00194 1.00195 l -0.95312,0.5053 c -3.10325,1.64517 -11.79585,5.91293 -16.32813,8.01652 -11.36251,5.27375 -25.77777,11.27637 -27.81314,11.5816 -0.22133,0.0332 -0.27664,0.0589 -0.1912,0.0889 0.11798,0.0414 0.118,0.043 9.6e-4,0.0879 -0.0709,0.0272 -0.12868,0.0174 -0.14253,-0.0241 -0.0152,-0.0455 -0.0623,-0.0346 -0.13525,0.0314 -0.14035,0.12702 -0.91601,0.40423 -1.12509,0.4021 -0.12806,-10e-4 -0.0999,-0.0311 0.15625,-0.16531 z"
   id="path5168"
   inkscape:connector-curvature="0" /><path
   style="fill:#2482c8;fill-opacity:1;stroke-width:0.0625"
   d=""
   id="path5170"
   inkscape:connector-curvature="0" /><path
   style="fill:#2482c8;fill-opacity:1;stroke-width:0.0625"
   d=""
   id="path5172"
   inkscape:connector-curvature="0" /><path
   style="fill:#2482c8;fill-opacity:1;stroke-width:0.0625"
   d=""
   id="path5174"
   inkscape:connector-curvature="0" /><path
   style="fill:#2482c8;fill-opacity:1;stroke-width:0.0625"
   d=""
   id="path5176"
   inkscape:connector-curvature="0" /><path
   style="fill:#2482c8;fill-opacity:1;stroke-width:0.0625"
   d=""
   id="path5178"
   inkscape:connector-curvature="0" /><path
   style="fill:#2482c8;fill-opacity:1;stroke-width:0.0625"
   d="m 340.11613,345.70847 c 0,-0.062 0.73679,-0.41995 0.77852,-0.37823 0.0165,0.0165 -0.15194,0.11968 -0.37427,0.22931 -0.22234,0.10964 -0.40425,0.17665 -0.40425,0.14892 z"
   id="path5180"
   inkscape:connector-curvature="0" /><path
   style="fill:#2482c8;fill-opacity:1;stroke-width:0.0625"
   d=""
   id="path5182"
   inkscape:connector-curvature="0" /><path
   style="fill:#2482c8;fill-opacity:1;stroke-width:0.0625"
   d=""
   id="path5184"
   inkscape:connector-curvature="0" /><path
   style="fill:#2482c8;fill-opacity:1;stroke-width:0.0625"
   d="m 309.40591,321.48326 c 0.16503,-0.10148 0.29335,-0.13446 0.4375,-0.11244 0.19496,0.0298 0.18739,0.0362 -0.17103,0.1447 -0.49174,0.14889 -0.54966,0.14188 -0.26647,-0.0323 z"
   id="path5186"
   inkscape:connector-curvature="0" /><path
   style="fill:#2482c8;fill-opacity:1;stroke-width:0.0625"
   d=""
   id="path5188"
   inkscape:connector-curvature="0" /><path
   style="fill:#2482c8;fill-opacity:1;stroke-width:0.0625"
   d="m 289.35988,331.16348 c 0.10313,-0.086 0.19688,-0.1285 0.20834,-0.0945 0.0115,0.034 0.0677,0.0636 0.125,0.0658 0.0818,0.003 0.0773,0.0145 -0.0208,0.0532 -0.0687,0.0271 -0.20937,0.0678 -0.3125,0.0906 l -0.1875,0.0413 z"
   id="path5190"
   inkscape:connector-curvature="0" /><path
   style="fill:#2482c8;fill-opacity:1;stroke-width:0.0625"
   d=""
   id="path5192"
   inkscape:connector-curvature="0" /><path
   style="fill:#2482c8;fill-opacity:1"
   id="path5196"
   d="m 392.90873,299.63428 c 0.24691,0.0713 0.49091,0.1512 0.73672,0.22597 0.15451,0.0563 0.25137,0.13002 0.35423,0.25516 0.10789,0.1402 0.20967,0.28554 0.3182,0.42523 0.078,0.0912 0.16112,0.18168 0.27551,0.22418 0.0839,0.0484 0.17318,0.0889 0.25349,0.14289 0.0894,0.049 0.18277,0.0873 0.28248,0.10932 0.10232,0.0441 0.21043,0.07 0.31672,0.1024 0.0579,0.009 0.10944,0.0367 0.16318,0.0582 0,0 -0.77354,0.51863 -0.77354,0.51863 v 0 c -0.0519,-0.0203 -0.10421,-0.0395 -0.1586,-0.0525 -0.1051,-0.0326 -0.21145,-0.0607 -0.31465,-0.0992 -0.10442,-0.0317 -0.20549,-0.0747 -0.29898,-0.13135 -0.0818,-0.0453 -0.16148,-0.0944 -0.24638,-0.13396 -0.11871,-0.0636 -0.21328,-0.1598 -0.29738,-0.26416 -0.10501,-0.14069 -0.20649,-0.284 -0.31654,-0.42093 -0.0881,-0.10203 -0.19389,-0.17133 -0.32363,-0.21263 -0.24266,-0.0803 -0.48549,-0.1595 -0.73386,-0.22093 0,0 0.76303,-0.5263 0.76303,-0.5263 z"
   inkscape:connector-curvature="0" /><path
   style="fill:#2482c8;fill-opacity:1"
   id="path5198"
   d="m 391.45766,299.41474 c 0.23439,0.003 0.4678,-0.007 0.70066,0.0224 0.13624,0.0173 0.27548,0.0403 0.40263,0.0937 0.11267,0.0401 0.22267,0.0841 0.32529,0.14605 0.10279,0.0751 0.17637,0.17739 0.16554,0.30758 -0.78267,0.50323 -0.57776,0.4904 -1.10081,0.4808 -0.12695,-10e-4 -0.25022,-0.0364 -0.36856,-0.0794 -0.11139,-0.0261 -0.22105,-0.0582 -0.33287,-0.083 -0.13785,-0.0193 -0.27514,-0.03 -0.41265,-0.0523 -0.14719,-0.024 -0.29604,-0.0332 -0.44492,-0.0379 -0.13013,-0.0319 -0.26469,-0.0389 -0.39495,-0.0683 -0.22353,-0.0588 -0.45291,-0.0894 -0.67994,-0.13258 -0.28991,-0.0456 -0.57956,-0.0899 -0.86888,-0.13918 -0.2837,-0.0618 -0.56176,-0.14565 -0.84186,-0.22148 -0.33932,-0.076 -0.66731,-0.19491 -1.00909,-0.25924 0,0 0.75437,-0.52571 0.75437,-0.52571 v 0 c 0.34012,0.0716 0.66782,0.19004 1.00662,0.26791 0.2817,0.0733 0.56285,0.14927 0.84807,0.20787 0.2869,0.0534 0.57531,0.0955 0.86313,0.14351 0.23046,0.0395 0.4619,0.073 0.68959,0.12689 0.12898,0.0199 0.25772,0.043 0.3874,0.057 0.15066,0.008 0.30086,0.0223 0.44977,0.0471 0.13951,0.0205 0.28131,0.0237 0.41874,0.0572 0.11322,0.0288 0.22782,0.0532 0.33864,0.0904 0.11304,0.0374 0.23144,0.0576 0.35081,0.055 0.44959,10e-4 0.59155,-0.22295 -0.51213,0.43186 0.11825,0.0248 -0.0519,-0.16918 -0.0855,-0.16693 -0.10191,-0.0536 -0.20985,-0.0929 -0.31772,-0.13279 -0.12637,-0.0387 -0.25569,-0.0648 -0.38728,-0.0778 -0.23088,-0.0245 -0.46317,-0.0133 -0.69496,-0.0132 0,0 0.75085,-0.54552 0.75085,-0.54552 z"
   inkscape:connector-curvature="0" /><path
   style="fill:#2482c8;fill-opacity:1"
   id="path5200"
   d="m 384.33266,295.35224 c 0.23861,0.0137 0.47537,-0.0174 0.71224,-0.0406 0.14439,-0.0105 0.28386,-0.0548 0.4223,-0.0949 0.12995,-0.0303 0.2611,-0.0446 0.39098,-0.0746 0.14102,-0.033 0.28454,-0.0592 0.41601,-0.12156 0.12238,-0.0437 0.23087,-0.11291 0.35725,-0.14523 0.12342,-0.0342 0.2456,-0.0612 0.37366,-0.0737 0.1374,-0.0443 0.28419,-0.043 0.42256,-0.0788 0.12266,-0.0354 0.2494,-0.0481 0.37633,-0.055 0.14045,-0.0251 0.27972,-0.0471 0.41804,-0.0817 0.14155,-0.0427 0.28969,-0.0627 0.43099,-0.10522 0.15266,-0.0337 0.29655,-0.0942 0.44711,-0.13595 0.16312,-0.0451 0.33178,-0.0503 0.49975,-0.0538 0.19835,-0.009 0.39877,0.0128 0.59595,-0.0127 0.13869,-0.0243 0.27837,-0.0397 0.4189,-0.0472 0.12765,-0.005 0.25544,-0.005 0.38318,-0.005 0.14066,-0.002 0.27911,-0.0351 0.41934,-0.0493 0.12992,0.002 0.25387,-0.0254 0.38079,-0.0478 0.12746,-0.007 0.24939,-0.0378 0.37419,-0.0615 0.12771,-0.022 0.25745,-0.0262 0.38674,-0.0279 0.16898,0.003 0.33535,8.3e-4 0.50266,-0.0229 0.13947,-0.0297 0.2849,-0.0185 0.42337,-0.0498 0.12663,-0.0312 0.25631,-0.0435 0.38626,-0.0486 0.20426,0.002 0.40352,-0.0461 0.60282,-0.0845 0.15392,-0.0156 0.30324,-0.0532 0.4555,-0.0776 0.1511,-0.0233 0.30404,-0.0262 0.45657,-0.029 0.13656,-0.0257 0.27372,-0.0455 0.41229,-0.0559 0.12635,-0.008 0.253,-0.008 0.37953,-0.008 0.1249,-3e-5 0.24981,2.3e-4 0.37471,3.7e-4 0.13995,4.4e-4 0.2799,5e-4 0.41985,4e-4 0.1308,-1.2e-4 0.26161,-1.9e-4 0.39241,-2.3e-4 0.10512,-0.031 0.21268,-0.0467 0.32164,-0.0553 0.12172,-0.007 0.24373,-0.007 0.36562,-0.008 0.12381,0.005 0.24996,-0.0129 0.37172,0.0127 0.0113,0.003 0.0746,0.0138 0.0884,0.0281 0.0124,0.0128 0.0608,0.10099 0.0331,0.1194 -0.70667,0.46962 -0.52658,0.43588 -0.89076,0.49049 -0.15378,0.0593 -0.31973,0.0656 -0.48242,0.0733 -0.24501,0.009 -0.49023,0.009 -0.73537,0.01 -0.21259,-3.9e-4 -0.42518,-10e-6 -0.63777,4.7e-4 -0.13882,3.4e-4 -0.27764,4.9e-4 -0.41645,5.6e-4 -0.12451,5e-5 -0.24902,4e-5 -0.37353,4e-5 -0.14882,-0.0129 -0.29203,0.01 -0.43785,0.0341 -0.0818,0.0209 -0.16873,0.0104 -0.25114,0.024 -0.0346,0.006 -0.0673,0.0198 -0.10107,0.0292 -0.11016,0.0278 -0.22407,0.0323 -0.33706,0.036 -0.12538,-0.01 -0.24454,0.016 -0.36701,0.0367 -0.12542,0.0198 -0.25246,0.024 -0.37917,0.0267 -0.12769,0.002 -0.2554,0.002 -0.38309,9.4e-4 -0.18341,-10e-4 -0.36682,-10e-4 -0.55023,-10e-4 -0.14262,0.0108 -0.2911,-0.0189 -0.43116,0.0134 -0.10924,0.0236 -0.21729,0.0418 -0.32525,0.0702 -0.12415,0.0218 -0.24672,0.0387 -0.36409,0.0866 -0.14337,0.0346 -0.28478,0.0765 -0.42862,0.10927 -0.12712,0.0355 -0.26057,0.0549 -0.38622,0.0955 -0.12642,0.0274 -0.24956,0.0657 -0.37568,0.0942 -0.12882,0.019 -0.25636,0.048 -0.38132,0.085 -0.14328,0.0313 -0.28033,0.0821 -0.42445,0.11001 -0.14404,0.0254 -0.28674,0.068 -0.425,0.11601 -0.19612,0.0533 -0.39274,0.10409 -0.58842,0.15927 -0.1433,0.0352 -0.29183,0.0685 -0.43945,0.0487 -0.11338,-0.0359 -0.21212,-0.0954 -0.28374,-0.19071 -0.0588,-0.0789 -0.14232,-0.12204 -0.23506,-0.14777 -0.11648,-0.0315 -0.23263,0.003 -0.34918,0.018 -0.13737,0.0144 -0.26656,0.0687 -0.40013,0.10219 -0.13221,0.0559 -0.27507,0.0694 -0.40409,0.13225 -0.0793,0.0464 -0.17128,0.0539 -0.25715,0.079 -0.0359,0.0105 -0.0695,0.0277 -0.10485,0.04 -0.11069,0.0336 -0.22685,0.0377 -0.3416,0.0414 -0.12585,-9.3e-4 -0.22642,-0.003 -0.34898,0.0269 -0.11096,0.0257 -0.22504,0.0306 -0.33842,0.0345 -0.11619,0.0387 -0.24313,0.0309 -0.35798,0.0702 -0.10664,0.0382 -0.21959,0.0471 -0.33174,0.0532 -0.14352,-0.001 -0.23187,0.0553 -0.2791,-0.11255 0.004,-0.0154 0.003,-0.0324 0.011,-0.0463 0.0132,-0.0241 0.0381,-0.0408 0.0619,-0.0546 0.61521,-0.35988 0.56259,-0.44578 0.96546,-0.5012 0.13514,-0.0156 0.27136,-0.0164 0.40721,-0.0171 0.11224,-0.003 0.22043,-0.0376 0.33265,-0.05 0.12099,-0.004 0.23794,-0.0118 0.35637,-0.0358 0.11939,-0.008 0.22957,-0.0446 0.3445,-0.0724 0.11602,-0.0163 0.22983,-0.0268 0.34421,-0.052 0.12394,-0.0261 0.25057,-0.0328 0.3768,-0.037 0.10295,-0.0142 0.19091,-0.0647 0.28821,-0.0949 0.0343,-0.036 0.0842,-0.0411 0.12569,-0.0621 0.044,-0.0223 0.0762,-0.0466 0.12444,-0.063 0.10235,-0.0156 0.19395,-0.0589 0.29616,-0.0769 0.11738,-0.0162 0.23614,-0.0168 0.35441,-0.0179 0.12585,0.009 0.24696,-0.0262 0.37079,-0.043 0.11956,8.8e-4 0.23022,-0.03 0.34541,-0.0551 0.11469,-0.0211 0.2316,-0.0236 0.34786,-0.0259 0.12444,-0.002 0.24889,-10e-4 0.37333,-8.8e-4 0.12511,2.2e-4 0.25022,3.1e-4 0.37533,3.6e-4 0.10496,-0.0311 0.21245,-0.0466 0.32128,-0.0552 0.10678,-0.0126 0.20891,-0.0462 0.31702,-0.0585 0.1051,-0.0165 0.20539,-0.0501 0.31253,-0.0625 0.11965,-0.018 0.2367,-0.0483 0.35789,-0.0616 0.10486,-0.01 0.21023,-0.0111 0.31546,-0.0123 0,0 -0.75167,0.54822 -0.75167,0.54822 v 0 c -0.10326,0.003 -0.20673,0.006 -0.30913,0.0209 -0.11969,0.019 -0.23693,0.0502 -0.35754,0.0635 -0.1046,0.02 -0.20604,0.0542 -0.31282,0.0621 -0.10642,0.0193 -0.21031,0.052 -0.31922,0.0552 -0.1092,0.0142 -0.21621,0.0441 -0.3265,0.047 -0.12512,-9e-5 -0.25024,-2.4e-4 -0.37536,-4e-4 -0.12391,-5e-5 -0.24786,-4.6e-4 -0.37172,0.003 -0.11351,0.005 -0.22734,0.0127 -0.33794,0.0406 -0.11511,0.0268 -0.2317,0.0337 -0.34872,0.0488 -0.12551,0.02 -0.25032,0.0402 -0.37809,0.0335 -0.11515,0.003 -0.23135,0.006 -0.34379,0.0339 -0.0963,0.0272 -0.19248,0.0565 -0.2863,0.0905 -0.0828,0.0435 -0.16616,0.0871 -0.25361,0.12044 -0.0972,0.039 -0.19808,0.0678 -0.30352,0.0721 -0.12383,0.007 -0.24718,0.0206 -0.3683,0.0485 -0.11369,0.0212 -0.23042,0.0237 -0.34202,0.0564 -0.11444,0.0314 -0.23107,0.0463 -0.34795,0.0662 -0.1192,0.0185 -0.23998,0.0154 -0.35934,0.0332 -0.11242,0.0183 -0.22357,0.0475 -0.3386,0.04 -0.1327,0.002 -0.26639,0.005 -0.39691,0.0312 -0.3067,0.0828 -0.75103,0.4177 0.64429,-0.40086 0.0119,-0.007 -0.0255,0.0111 -0.0371,0.0186 -0.0103,0.007 -0.0163,0.0204 -0.0281,0.0237 -0.0109,0.003 -0.0222,-0.004 -0.0334,-0.007 -0.0359,-0.0259 -0.0394,-0.0256 0.005,-0.0263 0.06,-9e-4 0.12003,-0.004 0.17986,-0.009 0.10989,-0.0115 0.21695,-0.034 0.32298,-0.0652 0.12273,-0.0189 0.24482,-0.0432 0.36828,-0.0559 0.11141,-0.007 0.22203,-0.0204 0.33097,-0.0457 0.118,-0.0176 0.23751,-0.007 0.35633,-0.0159 0.1111,-0.008 0.22178,-0.0215 0.32637,-0.0624 0.11948,-0.0398 0.24379,-0.0652 0.35736,-0.12223 0.13533,-0.0456 0.27559,-0.0758 0.41072,-0.12259 0.13454,-0.0384 0.26808,-0.0833 0.40873,-0.0932 0.12677,-0.0166 0.25183,-0.0315 0.37464,0.0165 0.10367,0.0419 0.19758,0.10098 0.26477,0.19256 0.0595,0.0724 0.14564,0.11548 0.23873,0.12555 0.14228,-0.004 0.282,-0.0321 0.41858,-0.0715 0.19547,-0.0544 0.39297,-0.10136 0.58661,-0.1624 0.14255,-0.0425 0.28499,-0.0861 0.43209,-0.1104 0.14116,-0.0352 0.27983,-0.0797 0.42151,-0.11309 0.12724,-0.0309 0.25487,-0.0586 0.38326,-0.084 0.12448,-0.0333 0.25,-0.0617 0.3742,-0.096 0.12959,-0.0293 0.25751,-0.0645 0.38724,-0.0932 0.14178,-0.0371 0.28511,-0.0693 0.42411,-0.116 0.1219,-0.0336 0.24653,-0.0508 0.36917,-0.0812 0.10934,-0.0265 0.22131,-0.042 0.33204,-0.0614 0.14497,-0.006 0.29016,-2e-4 0.43521,-10e-4 0.18407,4.9e-4 0.36815,4.2e-4 0.55222,-3.7e-4 0.12735,-4.4e-4 0.25474,1.8e-4 0.38205,-0.004 0.12448,-0.005 0.24891,-0.0139 0.37159,-0.0368 0.12412,-0.0208 0.24804,-0.0271 0.37385,-0.0282 0.11049,-0.007 0.22033,-0.0204 0.32732,-0.0503 0.11717,-0.0237 0.23788,-0.0227 0.35525,-0.0466 0.14842,-0.0226 0.29698,-0.0258 0.44702,-0.0225 0.12448,-10e-6 0.24895,-2e-5 0.37343,5e-5 0.13815,1.2e-4 0.27629,3.6e-4 0.41443,10e-4 0.21153,9.7e-4 0.42306,0.002 0.63459,10e-4 0.24424,-6.9e-4 0.48871,-3.7e-4 0.73261,-0.0151 0.1626,-0.0138 0.32228,-0.0367 0.47668,-0.092 0.33356,-0.13627 -0.18362,0.0724 -0.71308,0.43039 -0.0155,0.0105 0.0296,0.0229 0.0445,0.0343 0.005,0.005 0.0186,0.0109 0.0135,0.0154 -0.0192,0.0167 -0.061,-0.0571 -0.0752,-0.0138 -0.12098,-0.006 -0.24231,-10e-4 -0.36341,-0.002 -0.12034,0.001 -0.24096,0.002 -0.36072,0.0154 -0.10928,0.0142 -0.21638,0.0442 -0.32677,0.0471 -0.13059,-3e-5 -0.26119,-10e-5 -0.39178,-2.4e-4 -0.1402,-1.4e-4 -0.28041,-1.3e-4 -0.42061,3e-5 -0.12479,-1.4e-4 -0.24957,-4.8e-4 -0.37436,1.3e-4 -0.12498,10e-4 -0.25014,0.003 -0.37468,0.0142 -0.1386,0.0146 -0.27558,0.0419 -0.41477,0.0502 -0.15009,0.005 -0.30047,0.0123 -0.44829,0.0407 -0.15031,0.0303 -0.30171,0.0508 -0.4528,0.0768 -0.20244,0.0384 -0.40571,0.073 -0.61238,0.0769 -0.12831,0.0109 -0.25491,0.0312 -0.38121,0.0562 -0.14136,0.0144 -0.28316,0.0244 -0.42377,0.0457 -0.16937,0.0174 -0.33916,0.0125 -0.50919,0.0169 -0.12675,0.005 -0.25368,0.0136 -0.37795,0.0409 -0.12441,0.0258 -0.24982,0.0405 -0.37527,0.0601 -0.12734,0.0232 -0.25513,0.0324 -0.38403,0.0428 -0.1413,0.0178 -0.2821,0.0463 -0.42522,0.0408 -0.12677,9.9e-4 -0.25367,0.001 -0.3802,0.01 -0.1392,0.0111 -0.27707,0.0322 -0.41585,0.0472 -0.19915,0.009 -0.3987,-8.9e-4 -0.59792,0.008 -0.16441,0.008 -0.32855,0.0225 -0.48632,0.073 -0.14959,0.0468 -0.29671,0.10123 -0.45023,0.13468 -0.14478,0.0323 -0.28831,0.0688 -0.43244,0.10385 -0.14088,0.032 -0.28459,0.0519 -0.42776,0.0704 -0.12454,0.0118 -0.2469,0.0346 -0.36854,0.0638 -0.14281,0.0215 -0.28454,0.0473 -0.42659,0.0731 -0.12406,0.019 -0.24432,0.0532 -0.36458,0.0886 -0.11838,0.0465 -0.23109,0.10682 -0.35133,0.14927 -0.13907,0.0473 -0.28331,0.0778 -0.42651,0.11001 -0.12891,0.027 -0.2612,0.0376 -0.38706,0.0788 -0.14054,0.0395 -0.28361,0.0721 -0.42991,0.0793 -0.23922,0.0219 -0.47845,0.0407 -0.71897,0.0347 0,0 0.75085,-0.54552 0.75085,-0.54552 z"
   inkscape:connector-curvature="0" /><path
   style="fill:#2482c8;fill-opacity:1"
   id="path5202"
   d="m 378.07513,296.63252 c 0.23661,-0.0611 0.47624,-0.10874 0.71877,-0.13847 0.12947,-0.037 0.26027,-0.0631 0.39439,-0.0741 0.10138,-0.033 0.20415,-0.0562 0.30626,-0.0863 0.12133,-0.0275 0.24452,-0.0539 0.36126,-0.0976 0.11718,-0.0287 0.22128,-0.0864 0.33918,-0.11272 0.1163,-0.0385 0.23174,-0.0809 0.35054,-0.11161 0.12666,-0.0271 0.24958,-0.0689 0.37287,-0.10837 0.12885,-0.035 0.25185,-0.0808 0.38501,-0.10034 0.12407,-0.0197 0.24524,-0.0511 0.37089,-0.0648 0.12707,-10e-4 0.24859,-0.0376 0.37383,-0.0554 0.12574,-0.0205 0.24823,-0.0539 0.37556,-0.0687 0.15142,-0.0296 0.30054,-0.0686 0.45165,-0.0996 0.11551,-0.0588 0.2461,-0.0663 0.36714,-0.10481 0.12386,-0.0287 0.24159,-0.074 0.36678,-0.0978 0.11095,-0.0449 0.22305,-0.085 0.33984,-0.11152 0.0261,0.004 0.2133,-0.0455 0.22657,-0.0366 0.0176,0.0118 0.0529,0.0399 0.0359,0.0525 -0.26308,0.19437 -0.55021,0.35389 -0.82532,0.53084 -0.13555,0.0199 -0.26655,0.0517 -0.40319,0.0671 -0.18598,-10e-4 -0.36119,0.0519 -0.53977,0.0955 -0.13623,0.0172 -0.26564,0.055 -0.39846,0.0866 -0.115,0.023 -0.23265,0.0251 -0.34949,0.0272 -0.1215,0.0301 -0.24538,0.0459 -0.36998,0.0552 -0.12661,0.001 -0.24913,0.007 -0.37313,0.0318 -0.0819,0.0233 -0.16944,0.0155 -0.25221,0.0306 -0.0354,0.006 -0.0687,0.0211 -0.10326,0.031 -0.11225,0.0305 -0.22109,0.0732 -0.33135,0.11106 -0.10699,0.0296 -0.20534,0.0818 -0.30474,0.12962 -0.10326,0.0597 -0.20812,0.11841 -0.31667,0.16848 -0.10961,0.0457 -0.21571,0.0988 -0.3273,0.14113 -0.11303,0.0605 -0.23865,0.091 -0.36052,0.1285 -0.1218,0.0324 -0.25149,0.0499 -0.3664,0.10298 -0.1087,0.0365 -0.21776,0.074 -0.3295,0.10093 -0.0805,0.0243 -0.16662,0.0145 -0.24827,0.0278 -0.0351,0.006 -0.0684,0.0197 -0.1028,0.029 -0.12297,0.0307 -0.19398,-0.002 -0.19051,-0.13889 0.16354,-0.30171 0.7958,-0.51549 0.89817,-0.57362 0.0478,-0.0272 0.12197,-0.0302 0.17445,-0.0483 0.12617,-0.0409 0.25827,-0.0528 0.38999,-0.058 0.13705,-10e-4 0.27041,0.001 0.40416,-0.0291 0.10593,-0.0113 0.19867,-0.0598 0.30283,-0.08 0.0947,-0.043 0.19214,-0.0827 0.29276,-0.1102 0.10074,-0.0153 0.20006,-0.0354 0.30057,-0.0505 -0.46902,0.39084 -0.62568,0.55987 -1.09332,0.61253 -0.12697,0.002 -0.24831,0.0386 -0.37347,0.0566 -0.12234,0.0122 -0.23884,0.0506 -0.35254,0.0948 -0.0177,0.005 -0.0362,0.008 -0.053,0.0158 -0.0302,0.0132 -0.11542,0.0637 -0.0869,0.0473 0.23938,-0.13822 0.96068,-0.54734 0.72156,-0.40868 -0.27917,0.16187 -0.55931,0.32205 -0.83896,0.48307 0.25324,-0.14553 0.50598,-0.29192 0.75972,-0.43659 0.0133,-0.008 -0.0251,0.0177 -0.0383,0.0253 -0.28013,0.16029 -0.56098,0.31932 -0.84184,0.47833 -0.0479,0.0271 -0.0954,0.043 -0.14088,0.0747 -0.0931,0.0659 -0.21089,0.0543 -0.31268,0.0923 -0.11342,0.041 -0.23458,0.0435 -0.35365,0.0489 -0.13399,0.005 -0.26808,0.004 -0.40213,0.004 -0.12688,-0.002 -0.24978,0.037 -0.37011,0.0729 -0.0792,-0.003 -0.17774,0.10397 -0.2472,0.0811 -0.0157,-0.0356 -0.0389,-0.0686 -0.0471,-0.10664 -0.005,-0.022 0.0464,-0.0457 0.0542,-0.0502 0.10093,-0.058 0.64207,-0.42122 0.95874,-0.53675 0.13755,-0.0599 0.27856,-0.11549 0.42312,-0.1564 0.0226,-0.005 0.0458,-0.008 0.0679,-0.0145 0.0374,-0.0114 0.072,-0.0308 0.1092,-0.0426 0.0537,-0.0171 0.10347,-0.0227 0.15445,-0.0473 0.1,-0.0438 0.20949,-0.0506 0.31698,-0.0565 0.10145,-0.0377 0.20814,-0.0509 0.31531,-0.0591 0.122,-0.007 0.24427,-0.007 0.36642,-0.007 0.12669,0.0126 0.24698,-0.0132 0.37073,-0.034 0.13368,-0.0257 0.27067,-0.0137 0.40405,-0.0377 0.15232,-0.0171 0.30034,-0.0516 0.45038,-0.0815 0.12048,-0.0596 0.24949,-0.0772 0.38176,-0.0868 0.25036,-0.0107 0.50112,-0.007 0.75166,-0.007 0.19516,-3.9e-4 0.10005,-1.5e-4 0.28531,-6.9e-4 0,0 -0.74605,0.54196 -0.74605,0.54196 v 0 c -0.1835,-7.6e-4 -0.0892,-4.8e-4 -0.28293,-7.7e-4 -0.2512,8.2e-4 -0.50319,-0.002 -0.75363,0.0204 -0.12969,0.0183 -0.25114,0.0582 -0.37658,0.0941 -0.15052,0.0317 -0.30193,0.0561 -0.45448,0.076 -0.13457,0.011 -0.27,0.0151 -0.40294,0.0411 -0.1261,0.0208 -0.25188,0.0266 -0.37972,0.0221 -0.12056,9.9e-4 -0.24144,0.002 -0.36143,0.0149 -0.10668,0.0143 -0.20973,0.0444 -0.31638,0.0575 -0.10458,0.0119 -0.2057,0.0344 -0.30267,0.0766 -0.11214,0.0291 -0.22008,0.0709 -0.33232,0.0997 -0.14128,0.0487 -0.28152,0.10114 -0.41697,0.1645 -0.29143,0.15071 -0.6844,0.38633 0.63979,-0.37735 0.019,-0.011 -0.0464,0.0368 -0.0623,0.0216 -0.026,-0.0248 -0.0423,-0.0581 -0.0635,-0.0871 0.0213,-0.0473 0.18788,-0.0691 0.23308,-0.0891 0.12564,-0.0344 0.25487,-0.0573 0.38566,-0.0523 0.13281,-2.8e-4 0.26574,-4.1e-4 0.39834,-0.009 0.11715,-0.009 0.23195,-0.0271 0.34358,-0.0654 0.10631,-0.02 0.20746,-0.0488 0.29822,-0.11048 0.083,-0.0381 0.0159,-0.007 0.0985,-0.0469 0.0158,-0.008 0.0626,-0.0315 0.0474,-0.0227 -0.25161,0.14733 -0.50486,0.29184 -0.75703,0.4382 -0.0131,0.008 0.0264,-0.0146 0.0397,-0.0218 0.27845,-0.16217 0.55691,-0.32435 0.83536,-0.48652 -0.25208,0.1465 -0.50384,0.29357 -0.75624,0.43952 -0.0133,0.008 0.0255,-0.0169 0.0388,-0.0246 0.27876,-0.1625 0.55742,-0.32516 0.83716,-0.48597 0.0452,-0.026 0.0967,-0.0364 0.14457,-0.056 0.11724,-0.0404 0.2401,-0.0627 0.36267,-0.0801 0.12461,-0.0222 0.24849,-0.0461 0.37503,-0.0548 0.49019,-0.0776 0.53466,-0.18267 -0.40074,0.50547 -0.0968,0.0142 -0.19429,0.0301 -0.28767,0.0596 -0.0987,0.0362 -0.19577,0.0782 -0.29729,0.10548 -0.10098,0.0299 -0.20005,0.0639 -0.30561,0.0753 -0.13567,0.019 -0.27297,0.008 -0.40935,0.0196 -0.12836,0.0118 -0.25529,0.0325 -0.37705,0.0767 -0.0387,0.0114 -0.0775,0.0213 -0.11449,0.0381 -0.0168,0.008 -0.0646,0.0356 -0.0487,0.0262 1.29514,-0.76664 0.94289,-0.56404 0.67719,-0.39712 -0.014,6.2e-4 -0.051,-0.0141 -0.0377,-0.0183 0.0367,-0.0117 0.082,-0.005 0.11752,-0.0227 0.11551,-0.0235 0.23531,-0.0226 0.34849,-0.0589 0.10904,-0.0336 0.21862,-0.0656 0.32499,-0.10708 0.12261,-0.0338 0.24591,-0.0647 0.36813,-0.0996 0.12092,-0.04 0.24236,-0.0769 0.35648,-0.13471 0.10812,-0.0475 0.21577,-0.0955 0.32258,-0.14593 0.10617,-0.0564 0.21191,-0.11363 0.31853,-0.1691 0.0994,-0.0489 0.20514,-0.0851 0.3101,-0.12032 0.11071,-0.0401 0.22285,-0.0774 0.33733,-0.10505 0.11832,-0.026 0.2405,-0.0291 0.35907,-0.055 0.12521,-0.0181 0.25166,-0.0133 0.37745,-0.0261 0.12509,-0.0139 0.24814,-0.0413 0.37361,-0.0507 0.11365,-0.005 0.22776,-0.0126 0.33785,-0.0436 0.13071,-0.0349 0.26439,-0.0521 0.39589,-0.0838 0.18015,-0.0442 0.36057,-0.0768 0.54613,-0.0877 0.13367,-0.0205 0.26624,-0.05 0.39787,-0.0804 -0.24214,0.16744 -0.49512,0.32018 -0.7264,0.50231 -0.0144,0.0113 0.0316,0.0264 0.0318,0.0447 1.3e-4,0.0105 -0.0208,0.002 -0.0312,0.004 -0.063,0.009 -0.12571,0.0197 -0.18705,0.0367 -0.11469,0.0347 -0.22593,0.0808 -0.34248,0.10913 -0.12217,0.0316 -0.24174,0.0725 -0.36484,0.10087 -0.12477,0.0268 -0.24511,0.0661 -0.36796,0.10003 -0.15187,0.0344 -0.30343,0.0708 -0.45732,0.0954 -0.12544,0.0208 -0.24811,0.0551 -0.37456,0.07 -0.12469,0.022 -0.24868,0.0452 -0.37528,0.0535 -0.12344,0.0195 -0.24435,0.0512 -0.36817,0.0686 -0.1281,0.0287 -0.25067,0.0755 -0.37735,0.10961 -0.12353,0.0401 -0.24937,0.0727 -0.37482,0.10622 -0.11721,0.0374 -0.23406,0.0759 -0.35182,0.11153 -0.11216,0.0379 -0.22111,0.0847 -0.33593,0.11505 -0.1209,0.0333 -0.24209,0.0648 -0.36344,0.0962 -0.10356,0.0303 -0.20977,0.056 -0.31619,0.0731 -0.13119,0.0179 -0.25865,0.0529 -0.38945,0.073 -0.2406,0.0336 -0.47877,0.0826 -0.71244,0.14949 0,0 0.73579,-0.56511 0.73579,-0.56511 z"
   inkscape:connector-curvature="0" /><g
   inkscape:groupmode="layer"
   id="layer2"
   inkscape:label="Center Font"><text
     xml:space="preserve"
     style="font-style:normal;font-variant:normal;font-weight:normal;font-stretch:normal;font-size:13.33333302px;line-height:1.25;font-family:sans-serif;-inkscape-font-specification:'sans-serif, Normal';font-variant-ligatures:normal;font-variant-caps:normal;font-variant-numeric:normal;font-feature-settings:normal;text-align:start;letter-spacing:0px;word-spacing:0px;writing-mode:lr-tb;text-anchor:start;fill:#000000;fill-opacity:1;stroke:none"
     x="108.84371"
     y="429.93832"
     id="text873"
     transform="rotate(-21.4)"><tspan
       sodipodi:role="line"
       id="tspan871"
       x="108.84371"
       y="429.93832"
       style="font-style:normal;font-variant:normal;font-weight:normal;font-stretch:normal;font-size:14.66666667px;font-family:Tahoma;-inkscape-font-specification:'Tahoma, Normal';font-variant-ligatures:normal;font-variant-caps:normal;font-variant-numeric:normal;font-feature-settings:normal;text-align:start;writing-mode:lr;text-anchor:start;fill:#e5a33a;fill-opacity:1">The Nebulon Cluster</tspan></text>
</g></svg>